<mxfile host="app.diagrams.net" modified="2024-07-20T15:31:31.098Z" agent="Mozilla/5.0 (Windows NT 10.0; Win64; x64) AppleWebKit/537.36 (KHTML, like Gecko) Chrome/126.0.0.0 Safari/537.36" etag="keFSuXNCtU02mriuWfUB" version="24.7.2" type="device">
  <diagram name="PÃ¡gina-1" id="EuWSHSSYwt1nv6NkAHXn">
    <mxGraphModel dx="1547" dy="597" grid="1" gridSize="10" guides="1" tooltips="1" connect="1" arrows="1" fold="1" page="0" pageScale="1" pageWidth="827" pageHeight="1169" math="0" shadow="0">
      <root>
        <mxCell id="0" />
        <mxCell id="1" parent="0" />
        <mxCell id="nm3tFPvMcN5WvyCS7uXW-4" value="" style="group" vertex="1" connectable="0" parent="1">
          <mxGeometry x="-100" y="50" width="280" height="190" as="geometry" />
        </mxCell>
        <mxCell id="DwvEQYAO25_rUr4tM-tn-1" value="" style="rounded=1;whiteSpace=wrap;html=1;fillColor=#f5f5f5;strokeColor=#666666;fontColor=#333333;" parent="nm3tFPvMcN5WvyCS7uXW-4" vertex="1">
          <mxGeometry y="30" width="280" height="160" as="geometry" />
        </mxCell>
        <mxCell id="nm3tFPvMcN5WvyCS7uXW-3" value="Books service" style="text;html=1;align=center;verticalAlign=middle;whiteSpace=wrap;rounded=0;" vertex="1" parent="nm3tFPvMcN5WvyCS7uXW-4">
          <mxGeometry x="65" width="150" height="30" as="geometry" />
        </mxCell>
        <mxCell id="nm3tFPvMcN5WvyCS7uXW-1" value="Book" style="rounded=0;whiteSpace=wrap;html=1;fillColor=none;strokeColor=#BFBFBF;" vertex="1" parent="1">
          <mxGeometry x="-80" y="90" width="100" height="30" as="geometry" />
        </mxCell>
        <mxCell id="nm3tFPvMcN5WvyCS7uXW-2" value="Author" style="rounded=0;whiteSpace=wrap;html=1;fillColor=none;strokeColor=#BFBFBF;" vertex="1" parent="1">
          <mxGeometry x="-80" y="135" width="100" height="30" as="geometry" />
        </mxCell>
        <mxCell id="nm3tFPvMcN5WvyCS7uXW-6" value="" style="group" vertex="1" connectable="0" parent="1">
          <mxGeometry x="200" y="50" width="280" height="190" as="geometry" />
        </mxCell>
        <mxCell id="DwvEQYAO25_rUr4tM-tn-4" value="" style="rounded=1;whiteSpace=wrap;html=1;fillColor=#d5e8d4;strokeColor=#82b366;" parent="nm3tFPvMcN5WvyCS7uXW-6" vertex="1">
          <mxGeometry y="30" width="280" height="160" as="geometry" />
        </mxCell>
        <mxCell id="nm3tFPvMcN5WvyCS7uXW-5" value="&amp;nbsp;Advertisements service" style="text;html=1;align=center;verticalAlign=middle;whiteSpace=wrap;rounded=0;" vertex="1" parent="nm3tFPvMcN5WvyCS7uXW-6">
          <mxGeometry x="65" width="150" height="30" as="geometry" />
        </mxCell>
        <mxCell id="nm3tFPvMcN5WvyCS7uXW-12" value="Advertisement" style="rounded=0;whiteSpace=wrap;html=1;fillColor=none;strokeColor=#BFBFBF;" vertex="1" parent="nm3tFPvMcN5WvyCS7uXW-6">
          <mxGeometry x="20" y="40" width="100" height="30" as="geometry" />
        </mxCell>
        <mxCell id="nm3tFPvMcN5WvyCS7uXW-13" value="Book" style="rounded=0;whiteSpace=wrap;html=1;fillColor=none;strokeColor=#BFBFBF;" vertex="1" parent="nm3tFPvMcN5WvyCS7uXW-6">
          <mxGeometry x="20" y="80" width="100" height="30" as="geometry" />
        </mxCell>
        <mxCell id="nm3tFPvMcN5WvyCS7uXW-14" value="Author" style="rounded=0;whiteSpace=wrap;html=1;fillColor=none;strokeColor=#BFBFBF;" vertex="1" parent="nm3tFPvMcN5WvyCS7uXW-6">
          <mxGeometry x="20" y="125" width="100" height="30" as="geometry" />
        </mxCell>
        <mxCell id="nm3tFPvMcN5WvyCS7uXW-8" value="" style="rounded=1;whiteSpace=wrap;html=1;fillColor=#f9f7ed;strokeColor=#36393d;" vertex="1" parent="1">
          <mxGeometry x="-100" y="280" width="150" height="120" as="geometry" />
        </mxCell>
        <mxCell id="nm3tFPvMcN5WvyCS7uXW-9" value="Search service" style="text;html=1;align=center;verticalAlign=middle;whiteSpace=wrap;rounded=0;" vertex="1" parent="1">
          <mxGeometry x="-35" y="250" width="150" height="30" as="geometry" />
        </mxCell>
        <mxCell id="nm3tFPvMcN5WvyCS7uXW-10" value="Book" style="rounded=0;whiteSpace=wrap;html=1;fillColor=none;strokeColor=#BFBFBF;" vertex="1" parent="1">
          <mxGeometry x="-75" y="300" width="100" height="30" as="geometry" />
        </mxCell>
        <mxCell id="nm3tFPvMcN5WvyCS7uXW-11" value="Author" style="rounded=0;whiteSpace=wrap;html=1;fillColor=none;strokeColor=#BFBFBF;" vertex="1" parent="1">
          <mxGeometry x="-75" y="345" width="100" height="30" as="geometry" />
        </mxCell>
      </root>
    </mxGraphModel>
  </diagram>
</mxfile>
